<svg xmlns="http://www.w3.org/2000/svg" width="19" height="15.969" viewBox="0 0 19 15.969">
  <defs>
    <style>
      .cls-1 {
        fill-rule: evenodd;
      }
    </style>
  </defs>
  <path id="Shape_19_copy" data-name="Shape 19 copy" class="cls-1" d="M219.011,448.188s7.8,5.163,14.289-2.112c1.54-1.726,2.654-4.261,2.743-8.1a8.283,8.283,0,0,0,1.948-2.127,5.857,5.857,0,0,1-2.2.659,4.221,4.221,0,0,0,1.7-2.273,6.332,6.332,0,0,1-2.5,1,3.83,3.83,0,0,0-4.62-.835c-2.867,1.326-2.032,4.52-2.032,4.52a10.382,10.382,0,0,1-8.015-4.259,4.147,4.147,0,0,0,1.086,5.409,3.226,3.226,0,0,1-1.642-.487,3.786,3.786,0,0,0,3.061,4,3.505,3.505,0,0,1-1.7.115s0.306,2.243,3.59,2.789A7.526,7.526,0,0,1,219.011,448.188Z" transform="translate(-219 -433.969)"/>
</svg>
